<svg id="グループ_16178" data-name="グループ 16178" xmlns="http://www.w3.org/2000/svg" width="1179.165" height="372.584" viewBox="0 0 1179.165 372.584">
  <g id="グループ_16146" data-name="グループ 16146" transform="translate(367.924 0)">
    <g id="グループ_16153" data-name="グループ 16153" transform="translate(0)">
      <path id="パス_33093" data-name="パス 33093" d="M0-75.3H14.635V-89.93h43.9V-75.3H73.171V27.144H43.9V-2.124H29.268V27.144H0Zm43.9,43.9V-60.662H29.268v29.268ZM103.611-2.124h14.635V-60.662H103.611V-89.93h58.538v29.268H147.514V-2.124h14.635V27.144H103.611ZM207.222-16.759h14.635V-46.027H207.222V-75.3H236.49V-89.93h29.268V-75.3H324.3V12.51H309.662V27.144h-43.9V-2.124h29.268v-43.9h-43.9v29.268H236.49v43.9H207.222ZM384-89.93h29.268V-2.124h14.635V-16.759h14.635V-31.394h14.635V-46.027h29.268v29.268H471.809V-2.124H457.176V12.51H442.541V27.144H384ZM560.785-2.124h58.538v-43.9h29.268V12.51H633.957V27.144H560.786Zm-29.268-43.9h29.268v29.268H531.517Zm43.9,0h29.268v29.268H575.42Zm118.245,43.9h73.171V-16.759h14.635V-75.3h29.268V-2.126H796.106V12.509H781.471V27.144H693.665Zm0-43.9H752.2v29.268H693.665Zm0-43.9H752.2v29.268H693.665Zm43.9-43.9h29.268v29.268H737.568Zm43.9,0h29.268v29.268H781.471Z" transform="translate(0.502 334.203)" fill="#fff"/>
      <path id="パス_33092" data-name="パス 33092" d="M12.583-2.2H27.719V-93.011h30.27V12.937H42.854V28.073H12.583ZM103.4,12.937H88.261V-93.011h30.271V-2.2h15.135V28.073H103.4ZM57.989-138.417H88.261v30.271H57.989Zm45.406,0h30.271v30.271H103.4ZM229.324-32.468H183.917V-62.739h75.678V-77.874H274.73V-93.009H305v30.27H289.865V-47.6H274.73v15.135H259.594V28.073h-30.27ZM385.522-2.2h30.267V-17.333H355.25V-47.6H476.334v30.271H446.063V12.938H430.928V28.073H385.522ZM370.387-93.009H461.2v30.27H370.387ZM556.856-2.2H617.4V-47.6h30.27V12.938H632.536V28.073H556.855ZM526.585-47.6h30.27v30.27H526.583Zm45.406,0h30.27v30.27H571.99ZM728.189-2.2H773.6V-17.333H788.73V-62.739H743.324V-47.6H728.188v15.135h-30.27v-30.27h15.135V-77.874h15.135V-93.009H819V-2.2H803.865V12.938H788.73V28.073H728.188Z" transform="translate(-12.583 138.417)" fill="#fff"/>
    </g>
  </g>
  <g id="グループ_16147" data-name="グループ 16147" transform="translate(0 0.502)">
    <g id="グループ_16145" data-name="グループ 16145">
      <g id="グループ_16136" data-name="グループ 16136">
        <g id="グループ_16135" data-name="グループ 16135">
          <g id="グループ_16130" data-name="グループ 16130">
            <path id="前面オブジェクトで型抜き_4" data-name="前面オブジェクトで型抜き 4" d="M287.891,290.155H67.123L0,214.275V0H201.519V41.608h41.409V83.225h44.963ZM85.97,85.919h0V204.457h116V85.919Z" transform="translate(7.322 81.928)" fill="#fff"/>
            <g id="グループ_16129" data-name="グループ 16129">
              <g id="グループ_16126" data-name="グループ 16126" transform="translate(7.322)">
                <g id="グループ_17945" data-name="グループ 17945">
                  <g id="グループ_8890" data-name="グループ 8890">
                    <g id="グループ_2225" data-name="グループ 2225">
                      <path id="線_37" data-name="線 37" d="M58.415,289.079H-27.5V0H58.415Z" transform="translate(27.5)" fill="#fff"/>
                      <rect id="長方形_881" data-name="長方形 881" width="201.975" height="204.233" transform="translate(42.957 124.886)" fill="rgba(0,0,0,0)"/>
                    </g>
                  </g>
                </g>
              </g>
              <rect id="長方形_3435" data-name="長方形 3435" width="33.157" height="33.156" transform="translate(262.053 80.078)" fill="#f6c44c"/>
              <rect id="長方形_3447" data-name="長方形 3447" width="24.307" height="24.305" transform="translate(0 329.119)" fill="#fff"/>
              <rect id="長方形_3448" data-name="長方形 3448" width="16.901" height="16.9" transform="translate(24.307 353.423)" fill="#fff"/>
              <rect id="長方形_3436" data-name="長方形 3436" width="17.702" height="17.702" transform="translate(277.508 120.857)" fill="#f6c44c"/>
            </g>
            <path id="長方形_3439" data-name="長方形 3439" d="M16.663,16.663V129.6H129.6V16.663H16.663M0,0H146.263V146.263H0Z" transform="translate(78.136 153.873)" fill="#fff"/>
          </g>
        </g>
        <rect id="長方形_3444" data-name="長方形 3444" width="88.867" height="38.879" transform="translate(177.418 207.306)" fill="#fff"/>
      </g>
    </g>
  </g>
</svg>
